<?xml version="1.0" encoding="UTF-8" standalone="no"?>
<!-- Created with Inkscape (http://www.inkscape.org/) -->

<svg
   xmlns:dc="http://purl.org/dc/elements/1.1/"
   xmlns:cc="http://creativecommons.org/ns#"
   xmlns:rdf="http://www.w3.org/1999/02/22-rdf-syntax-ns#"
   xmlns:svg="http://www.w3.org/2000/svg"
   xmlns="http://www.w3.org/2000/svg"
   xmlns:xlink="http://www.w3.org/1999/xlink"
   xmlns:sodipodi="http://sodipodi.sourceforge.net/DTD/sodipodi-0.dtd"
   xmlns:inkscape="http://www.inkscape.org/namespaces/inkscape"
   width="195"
   height="259"
   id="svg5505"
   version="1.1"
   inkscape:version="0.48.1 r9760"
   sodipodi:docname="Flamingo.svg">
  <defs
     id="defs5507">
    <linearGradient
       id="linearGradient6350">
      <stop
         style="stop-color:#ffae8e;stop-opacity:1;"
         offset="0"
         id="stop6352" />
      <stop
         style="stop-color:#ffbca2;stop-opacity:1;"
         offset="1"
         id="stop6354" />
    </linearGradient>
    <linearGradient
       id="linearGradient6342">
      <stop
         style="stop-color:#ffbca2;stop-opacity:1;"
         offset="0"
         id="stop6344" />
      <stop
         style="stop-color:#ffae8e;stop-opacity:1;"
         offset="1"
         id="stop6346" />
    </linearGradient>
    <linearGradient
       id="linearGradient6334">
      <stop
         style="stop-color:#ba00a3;stop-opacity:1;"
         offset="0"
         id="stop6336" />
      <stop
         style="stop-color:#ff1fe4;stop-opacity:1;"
         offset="1"
         id="stop6338" />
    </linearGradient>
    <linearGradient
       id="linearGradient6315">
      <stop
         style="stop-color:#ba00a3;stop-opacity:1;"
         offset="0"
         id="stop6317" />
      <stop
         style="stop-color:#f700d9;stop-opacity:0;"
         offset="1"
         id="stop6319" />
    </linearGradient>
    <linearGradient
       id="linearGradient6307">
      <stop
         style="stop-color:#f700d9;stop-opacity:1;"
         offset="0"
         id="stop6309" />
      <stop
         style="stop-color:#ff54e9;stop-opacity:1;"
         offset="1"
         id="stop6311" />
    </linearGradient>
    <linearGradient
       id="linearGradient6299">
      <stop
         style="stop-color:#ff54e9;stop-opacity:1;"
         offset="0"
         id="stop6301" />
      <stop
         style="stop-color:#f700d9;stop-opacity:1;"
         offset="1"
         id="stop6303" />
    </linearGradient>
    <linearGradient
       inkscape:collect="always"
       xlink:href="#linearGradient6299"
       id="linearGradient6305"
       x1="151.84285"
       y1="53.867397"
       x2="119.00736"
       y2="101.88425"
       gradientUnits="userSpaceOnUse" />
    <linearGradient
       inkscape:collect="always"
       xlink:href="#linearGradient6307"
       id="linearGradient6313"
       x1="100.0351"
       y1="99.36132"
       x2="10.549155"
       y2="103.72649"
       gradientUnits="userSpaceOnUse"
       gradientTransform="translate(314.37958,168.07806)" />
    <linearGradient
       inkscape:collect="always"
       xlink:href="#linearGradient6315"
       id="linearGradient6321"
       x1="53.944569"
       y1="104.62845"
       x2="58.735233"
       y2="89.075294"
       gradientUnits="userSpaceOnUse"
       gradientTransform="matrix(0.99515612,0.09830709,-0.09830709,0.99515612,326.34238,165.29978)" />
    <linearGradient
       inkscape:collect="always"
       xlink:href="#linearGradient6334"
       id="linearGradient6340"
       x1="158.96887"
       y1="23.15519"
       x2="156.82353"
       y2="26.347454"
       gradientUnits="userSpaceOnUse" />
    <linearGradient
       inkscape:collect="always"
       xlink:href="#linearGradient6342"
       id="linearGradient6348"
       x1="93.014847"
       y1="258.74835"
       x2="79.840813"
       y2="201.51614"
       gradientUnits="userSpaceOnUse" />
    <linearGradient
       inkscape:collect="always"
       xlink:href="#linearGradient6350"
       id="linearGradient6356"
       x1="110.96105"
       y1="180.09937"
       x2="120.58524"
       y2="225.20612"
       gradientUnits="userSpaceOnUse" />
    <filter
       inkscape:collect="always"
       id="filter6370">
      <feGaussianBlur
         inkscape:collect="always"
         stdDeviation="0.084239665"
         id="feGaussianBlur6372" />
    </filter>
  </defs>
  <sodipodi:namedview
     id="base"
     pagecolor="#ffffff"
     bordercolor="#666666"
     borderopacity="1.0"
     inkscape:pageopacity="0.0"
     inkscape:pageshadow="2"
     inkscape:zoom="2.0617761"
     inkscape:cx="97.5"
     inkscape:cy="129.5"
     inkscape:document-units="px"
     inkscape:current-layer="layer1"
     showgrid="false"
     fit-margin-top="0"
     fit-margin-left="0"
     fit-margin-right="0"
     fit-margin-bottom="0"
     inkscape:window-width="1366"
     inkscape:window-height="713"
     inkscape:window-x="-4"
     inkscape:window-y="-3"
     inkscape:window-maximized="1" />
  <metadata
     id="metadata5510">
    <rdf:RDF>
      <cc:Work
         rdf:about="">
        <dc:format>image/svg+xml</dc:format>
        <dc:type
           rdf:resource="http://purl.org/dc/dcmitype/StillImage" />
        <dc:title></dc:title>
      </cc:Work>
    </rdf:RDF>
  </metadata>
  <g
     inkscape:label="Layer 1"
     inkscape:groupmode="layer"
     id="layer1"
     transform="translate(-314.37958,-168.07806)">
    <g
       id="g6374">
      <path
         sodipodi:nodetypes="cccsccsccssccc"
         transform="translate(314.37958,168.07806)"
         inkscape:connector-curvature="0"
         id="path5785"
         d="m 75.420412,139.20037 -8.898785,24.07058 c -6.400982,1.39069 -4.788685,10.26771 1.88342,7.61579 11.537867,3.82694 23.000623,8.03995 51.645023,15.26944 2.13042,0.53769 0.54841,8.52583 -0.82701,10.71737 -1.89027,-0.0241 -3.64611,0.0563 -3.39513,1.69756 -2.90195,-1.34569 -16.534415,-2.28766 -17.7026,2.24532 -1.309328,5.08067 14.00764,2.70795 17.30181,2.72075 -23.325954,5.39607 -17.610056,17.54956 2.95194,2.58338 -19.288872,14.42369 -7.15535,22.10312 4.73733,0.36808 1.72857,-3.15912 5.4286,-20.9344 1.60015,-23.7332 -8.11606,-5.93329 -26.205178,-8.28751 -52.680492,-16.93277 l 9.689627,-26.13728 z"
         style="fill:url(#linearGradient6356);fill-opacity:1;stroke:#b06b4f;stroke-width:0.50000000000000000;stroke-linecap:butt;stroke-linejoin:miter;stroke-opacity:1;stroke-miterlimit:4;stroke-dasharray:none" />
      <path
         sodipodi:nodetypes="ccccssscscsccccc"
         transform="translate(314.37958,168.07806)"
         inkscape:connector-curvature="0"
         id="path5783"
         d="m 78.815543,140.65543 c -0.02144,8.96186 0.239611,18.61274 -0.242509,26.91854 -3.263394,1.41323 -1.974204,6.14599 -0.24251,6.6075 -0.779133,9.60757 -0.947186,26.1407 -0.970037,44.31947 -12.2791,-5.77368 -20.949402,4.13977 -16.705533,3.97555 20.403502,-0.78953 21.281953,10.98207 31.983623,18.82033 3.60673,2.64169 4.162911,-0.92117 3.88015,-2.18259 -1.987953,-8.86843 -9.673653,-10.06647 -14.550562,-15.03558 7.55025,4.70179 22.054295,13.68928 23.523405,10.4279 2.15274,-4.77903 -10.151494,-10.54824 -19.400746,-12.12546 10.376087,2.14947 24.162546,6.36317 23.280896,1.69756 -1.23791,-6.55089 -14.518695,-5.76703 -24.735952,-6.06273 -0.0503,-17.30122 -0.4436,-29.45729 -0.727528,-43.25403 3.21464,-1.50267 1.308196,-6.0667 -0.294225,-6.04316 0.797987,-7.55244 0.938891,-18.39029 1.264262,-28.30581 z"
         style="fill:url(#linearGradient6348);stroke:#b06b4f;stroke-width:0.50000000000000000;stroke-linecap:butt;stroke-linejoin:miter;stroke-opacity:1;fill-opacity:1;stroke-miterlimit:4;stroke-dasharray:none" />
      <path
         sodipodi:nodetypes="ccccccccccccccccccccccccccccscccccccccccccccssccc"
         transform="translate(314.37958,168.07806)"
         inkscape:connector-curvature="0"
         id="path5551"
         d="m 21.462079,107.91667 c -8.044322,6.136 -16.5784216,12.00177 -15.5205996,23.15964 6.4515256,-5.31518 9.8040196,-11.9698 14.6718166,-18.55196 -7.020393,11.11666 -7.271731,18.10933 -7.032772,26.06975 5.791521,-6.61687 9.246032,-15.57076 13.580524,-23.64466 -4.194217,7.95576 -6.986407,14.91008 -6.669007,19.64326 2.467494,-2.20142 5.786361,-12.49087 8.851592,-20.37079 -2.639196,8.14711 -7.847946,16.03727 -1.333802,25.09972 1.784397,-3.27833 2.261845,-14.39835 2.788858,-25.22098 l 8.735292,-3.88106 11.878004,3.03228 3.516386,9.82163 c 2.43719,3.64403 6.870623,7.73188 18.066948,9.94288 -1.450371,4.72425 -1.484721,7.30495 -1.091293,10.18539 1.010456,-0.39255 2.020911,-1.02311 3.031367,-2.06132 0.01839,1.03986 -0.473526,1.82457 0.121255,3.15262 1.147305,-1.01825 1.378757,-1.57858 1.940075,-2.30384 0.239958,0.80582 0.282846,1.41456 0.970037,2.66761 0.845181,-0.62387 1.299518,-1.51463 1.818821,-2.30384 -0.257601,1.29338 -0.60601,2.58677 -0.24251,3.88015 0.727527,-0.97004 1.131711,-1.77841 1.212547,-2.4251 0.342166,1.03113 0.431663,2.14648 1.212547,3.03137 0.669652,-0.43886 0.946374,-0.97595 0.970037,-1.57631 0.543095,1.22942 1.88252,2.38732 2.910112,2.97074 0.66911,-2.48811 -0.06167,-2.92943 10e-7,-3.94078 0.626045,0.81956 1.241957,1.66446 2.182584,1.69757 0.275938,-2.36234 -0.426774,-3.01204 -0.727528,-4.36517 5.92906,-2.46822 8.908229,-6.78013 12.367977,-10.79167 1.563762,2.94228 45.193252,-18.61201 47.410582,-45.34925 1.23177,-14.853129 -5.76381,-27.520307 -9.21536,-42.802902 -0.67134,-5.902052 1.47069,-4.770695 2.54635,-6.305244 4.0242,9.067276 8.26818,17.752824 18.30946,16.369382 l 12.73174,-17.218165 c 1.47507,-4.028167 -0.90959,-9.754612 -7.51779,-17.339419 2.96059,-2.627185 2.15528,-5.254369 2.78886,-7.881554 -1.38092,2.312847 -1.92971,5.180445 -5.0927,6.305243 2.45032,-6.7687635 -2.06164,-8.3158163 -4.36517,-11.5191946 1.00987,3.1174766 3.71432,5.5994836 2.4251,9.5791196 -3.23346,-5.0021057 -6.46692,-3.210579 -9.70038,-4.486423 3.13955,1.531815 7.08874,2.600978 8.12407,5.335206 -4.72893,-1.882429 -9.45787,-1.686352 -14.1868,-1.697566 l 1.45505,2.182585 c -2.14216,-1.368634 -4.28433,-1.040491 -6.42649,-1.212547 l 0.97003,1.940075 c -7.09151,0.662778 -15.08787,6.967692 -16.61189,15.03558 -2.30873,12.222017 3.21238,23.96332 3.51639,24.85721 2.8473,8.372035 7.36535,16.598788 3.15262,25.584738 -1.40094,3.486324 -6.7541,5.776706 -16.16962,5.095447 z"
         style="fill:url(#linearGradient6305);fill-opacity:1;stroke:#b06b4f;stroke-width:0.50000000000000000;stroke-linecap:butt;stroke-linejoin:miter;stroke-miterlimit:4;stroke-opacity:1;stroke-dasharray:none" />
      <path
         sodipodi:nodetypes="ccccc"
         inkscape:connector-curvature="0"
         id="path5526"
         d="m 491.31314,256.37796 c 3.18125,-17.35954 -9.82161,-24.11568 -17.54895,-34.32821 -1.74683,-8.70125 1.03891,-9.69713 3.23271,-11.6993 0.39383,5.09772 0.66267,8.50433 3.84846,10.77567 21.24936,18.34531 10.77547,36.74546 10.46778,35.25184 z"
         style="fill:#ff5a3c;fill-opacity:1;stroke:#b06b4f;stroke-opacity:1;stroke-width:0.5;stroke-miterlimit:4;stroke-dasharray:none" />
      <path
         sodipodi:nodetypes="ssscs"
         transform="translate(314.37958,168.07806)"
         inkscape:connector-curvature="0"
         id="path5524"
         d="m 175.05398,93.123596 c 23.16681,-11.61182 14.61427,-46.041535 3.40911,-54.853047 -2.59965,-2.044312 -9.8884,-4.224659 -12.58669,-0.439088 -2.98243,4.184209 -4.40422,8.784591 -1.45505,14.550561 27.55427,21.875019 7.84979,42.136406 10.63263,40.741574 z"
         style="fill:#ff7157;stroke:#b06b4f;stroke-width:0.5;stroke-linecap:butt;stroke-linejoin:miter;stroke-opacity:1;fill-opacity:1;stroke-miterlimit:4;stroke-dasharray:none" />
      <path
         sodipodi:nodetypes="csccccccccccccccccccc"
         inkscape:connector-curvature="0"
         id="path5547"
         d="m 431.38151,258.50375 c -1.16494,-1.92449 -4.77527,-6.6158 -6.09149,-8.30563 -28.74925,-36.90954 -79.12165,2.49328 -83.38563,17.91505 -12.16273,3.36197 -14.18181,8.41456 -19.15824,12.97425 3.3143,0.0612 6.62859,-1.54151 9.94289,-3.39513 -3.08441,2.7601 -6.77144,5.33478 -5.82023,9.33661 8.12575,-2.20251 11.53688,-5.1908 16.00562,-8.00281 -2.95751,3.34076 -6.15831,6.19494 -7.88155,12.00422 6.34573,-1.9096 12.16479,-5.00422 17.21816,-9.82163 -2.80938,3.29185 -5.56568,6.62085 -5.21395,12.12547 7.90084,-2.57835 13.45075,-9.46675 19.522,-15.39935 -3.96498,5.25126 -9.09725,9.59463 -7.51779,19.15824 6.35788,-5.73413 9.1767,-11.89491 12.36798,-17.94569 -3.04002,5.25701 -5.63562,10.55106 -4.85019,16.12687 6.11695,-4.5108 7.75738,-10.64943 10.54916,-16.36938 -1.2738,3.84681 -3.29448,8.10856 -1.81882,10.4279 2.90818,-3.5754 3.68462,-5.37435 4.72893,-7.39653 0.10426,3.02023 -1.66964,3.69276 0.72753,9.57912 2.47894,-1.38778 4.62744,-3.43645 5.82023,-7.39654 4.68334,0.56041 14.40772,4.91141 33.34504,-14.30805 7.39839,0.85191 7.80224,-0.82324 9.84599,-2.44947"
         style="fill:url(#linearGradient6313);fill-opacity:1;stroke:#b06b4f;stroke-width:0.5;stroke-linecap:butt;stroke-linejoin:miter;stroke-miterlimit:4;stroke-opacity:1;stroke-dasharray:none" />
      <path
         sodipodi:nodetypes="csccsccsc"
         inkscape:connector-curvature="0"
         id="path5549"
         d="m 362.05999,252.31277 c -2.06594,1.21188 -5.17922,4.19883 -6.79352,6.2532 -6.60453,8.40495 2.07682,6.63861 11.01209,-2.93305 -15.451,10.38651 -11.19695,24.4671 6.83623,6.0365 -12.7607,9.19458 -10.21146,19.07964 3.3264,7.03006 2.61265,-2.32542 3.38066,-2.81308 4.435,-4.19198 -7.42279,15.24061 2.48444,16.24665 8.19785,4.58702 -3.04609,6.0939 0.7616,9.96838 4.00879,2.58922 0.88899,-2.02021 0.6155,-1.16254 1.44849,-5.80235"
         style="fill:url(#linearGradient6321);fill-opacity:1;stroke:#b06b4f;stroke-width:0.30000000999999998;stroke-miterlimit:4;stroke-opacity:1;stroke-dasharray:none;filter:url(#filter6370)" />
      <path
         sodipodi:nodetypes="cccccccc"
         transform="translate(314.37958,168.07806)"
         inkscape:connector-curvature="0"
         id="path5779"
         d="m 159.59939,27.428998 c 1.12693,-0.809049 1.27874,-1.797838 1.01259,-3.115654 -0.50685,0.748939 -0.71146,1.622758 -2.18096,1.402045 0.96458,-1.197345 0.98769,-2.695891 0.15579,-3.660895 -0.2001,0.909363 -0.27089,2.502974 -1.7915,2.648307 0.39962,-1.616535 -0.14342,-2.578657 -0.9347,-3.42722 -0.35656,1.054997 0.0854,2.461891 -1.01507,3.144931 2.11258,0.224912 3.71267,1.212198 4.75385,3.008486 z"
         style="fill:url(#linearGradient6340);stroke:none;stroke-width:1px;stroke-linecap:butt;stroke-linejoin:miter;stroke-opacity:1;fill-opacity:1" />
      <path
         sodipodi:nodetypes="ccccc"
         transform="translate(314.37958,168.07806)"
         inkscape:connector-curvature="0"
         id="path5775"
         d="m 157.75234,38.195224 -0.48502,-1.940074 c 8.12704,-11.552844 -7.26923,-17.470303 -6.06273,-4.12266 l -1.09129,0 c 3.12185,1.4454 5.41617,3.0162 7.63904,6.062734 z"
         style="fill:#ffffff;stroke:#000000;stroke-width:1px;stroke-linecap:butt;stroke-linejoin:miter;stroke-opacity:1;fill-opacity:1" />
      <path
         sodipodi:nodetypes="cccc"
         transform="translate(314.37958,168.07806)"
         inkscape:connector-curvature="0"
         id="path5777"
         d="m 151.26501,32.491936 0.0443,-3.67047 c 2.91691,-2.503827 6.86682,0.77925 3.61535,6.184559 z"
         style="fill:#000000;fill-opacity:1;stroke:none" />
      <path
         sodipodi:nodetypes="cccc"
         inkscape:connector-curvature="0"
         id="path5787"
         d="m 467.10544,200.99347 c 0.0378,-1.39507 1.127,-2.23844 2.76405,-0.98171 -0.10268,1.12333 -0.56638,1.5246 -0.87959,2.22686 -0.78712,-0.58267 -1.45127,-1.13438 -1.88446,-1.24515 z"
         style="fill:#ffffff;fill-opacity:1;stroke:none" />
    </g>
  </g>
</svg>
